<svg width="27" height="24" viewBox="0 0 27 24" fill="none" xmlns="http://www.w3.org/2000/svg">
<path fill-rule="evenodd" clip-rule="evenodd" d="M21.2863 7.47631C24.7141 8.52552 26.9499 10.2174 26.9499 12.0027C26.9499 13.7826 24.7251 15.4745 21.3193 16.5237C22.1158 20.0064 21.7697 22.7805 20.2261 23.6704C19.8636 23.8791 19.4461 23.978 18.9847 23.978C17.474 23.978 15.4965 22.9123 13.4969 21.0556C11.4974 22.9233 9.5198 24 8.00916 24C7.54772 24 7.13024 23.9011 6.77317 23.6924C5.22408 22.8025 4.87251 20.0229 5.66354 16.5292C2.23575 15.48 0 13.7881 0 12.0027C0 10.2229 2.22477 8.53651 5.64157 7.4818C4.84504 3.99908 5.19112 1.22499 6.73472 0.335088C7.09728 0.126345 7.51476 0.0274662 7.9762 0.0274662V0.0219731C9.48684 0.0219731 11.4644 1.08766 13.464 2.94438C15.4635 1.07668 17.4411 0 18.9517 0V0.00549796C19.4055 0.00628988 19.8211 0.105211 20.1767 0.313115C21.7258 1.20302 22.0774 3.98261 21.2863 7.47631ZM18.9462 1.225C17.8037 1.22792 16.1253 2.13954 14.3374 3.80133C15.1119 4.60884 15.881 5.5317 16.6226 6.54795C17.8585 6.67979 19.0341 6.88304 20.1108 7.14672C20.2316 6.5919 20.3305 6.04807 20.3909 5.5317C20.6436 3.43328 20.3195 1.80179 19.5724 1.37331C19.4022 1.27993 19.1989 1.23049 18.9462 1.23049V1.225ZM12.5905 3.80682C10.7997 2.15335 9.1133 1.24697 7.9762 1.24697V1.25246C7.72351 1.25246 7.50927 1.29641 7.34447 1.39529C6.60288 1.82925 6.28428 3.46075 6.54246 5.55917C6.60838 6.07004 6.70176 6.60288 6.82811 7.15221C7.90478 6.88304 9.08034 6.67979 10.3218 6.54795C11.0524 5.5317 11.8215 4.61433 12.5905 3.80682ZM19.0561 10.5086C19.3417 9.77798 19.5944 9.04738 19.7977 8.33875C19.078 8.16297 18.3255 8.02014 17.5454 7.90478C17.8146 8.32227 18.0838 8.75074 18.3365 9.1902C18.5946 9.62966 18.8309 10.0691 19.0561 10.5086ZM15.9579 16.2875C16.4138 15.6338 16.8533 14.9306 17.2818 14.1891C17.6938 13.4694 18.0728 12.7333 18.4189 11.9973C18.0728 11.2612 17.6938 10.5306 17.2763 9.81094C16.8478 9.07485 16.4028 8.3772 15.9469 7.72351C15.1339 7.65759 14.3044 7.61913 13.4749 7.61913C12.64 7.61913 11.8105 7.65759 10.992 7.729C10.536 8.3827 10.0966 9.08583 9.66812 9.82742C9.25612 10.547 8.8716 11.2831 8.53101 12.0192C8.87709 12.7553 9.25612 13.4859 9.67361 14.2055C10.1021 14.9416 10.547 15.6393 11.003 16.293C11.816 16.3589 12.6455 16.3973 13.4749 16.3973C14.3099 16.3973 15.1394 16.3589 15.9579 16.2875ZM19.8141 15.6612C19.6054 14.9471 19.3527 14.211 19.0561 13.4749C18.8309 13.9144 18.5946 14.3593 18.342 14.7988C18.0893 15.2438 17.8201 15.6777 17.5509 16.1007C18.3365 15.9854 19.0945 15.837 19.8141 15.6612ZM11.9588 17.5784C12.4642 18.2211 12.9751 18.8089 13.4859 19.3362C13.9913 18.8089 14.5022 18.2211 14.9966 17.5784C14.4967 17.6059 13.9858 17.6168 13.4694 17.6168C12.9586 17.6168 12.4532 17.6004 11.9588 17.5784ZM7.14671 15.6667C7.86633 15.8425 8.61891 15.9854 9.39895 16.1007C9.12978 15.6832 8.8661 15.2547 8.60792 14.8153C8.34974 14.3758 8.11353 13.9364 7.8883 13.4969C7.60265 14.2275 7.34996 14.9581 7.14671 15.6667ZM14.9856 6.4271C14.4802 5.78439 13.9693 5.19661 13.4585 4.66926C12.9531 5.19661 12.4422 5.78439 11.9478 6.4271C12.4477 6.39963 12.9586 6.38865 13.4749 6.38865C13.9858 6.38865 14.4912 6.40513 14.9856 6.4271ZM8.60243 9.20668C8.85511 8.76173 9.12429 8.32776 9.39345 7.90478C8.60792 8.02014 7.84985 8.16846 7.13024 8.33875C7.33898 9.05287 7.59167 9.78897 7.8883 10.5251C8.11353 10.0856 8.34974 9.64614 8.60243 9.20668ZM1.2195 12.0027C1.2195 12.8652 2.47746 13.9528 4.42207 14.7823C4.89998 14.9856 5.41634 15.1723 5.96017 15.3426C6.2678 14.2715 6.6743 13.1563 7.17967 12.0137C6.6688 10.8656 6.25681 9.74502 5.94369 8.66834C5.41085 8.83864 4.89448 9.01991 4.42207 9.22316C2.47746 10.0471 1.2195 11.1403 1.2195 12.0027ZM6.55894 18.4738C6.30625 20.5722 6.63035 22.2037 7.37743 22.6322C7.54223 22.7256 7.75097 22.775 7.99817 22.7805C9.14076 22.7805 10.8217 21.8686 12.6125 20.2042C11.8379 19.3967 11.0689 18.4738 10.3273 17.4575C9.09133 17.3257 7.91577 17.1225 6.83909 16.8588C6.71824 17.4136 6.61936 17.9574 6.55894 18.4738ZM19.6054 22.6102C20.347 22.1762 20.6656 20.5447 20.4074 18.4463C20.347 17.9355 20.2481 17.4026 20.1218 16.8478C19.0451 17.117 17.8695 17.3202 16.6281 17.452C15.8975 18.4683 15.1284 19.3857 14.3594 20.1932C16.1502 21.8466 17.8366 22.753 18.9737 22.753C19.2264 22.753 19.4406 22.7091 19.6054 22.6102ZM21.0007 15.3371C21.5335 15.1669 22.0499 14.9856 22.5223 14.7823C24.4669 13.9583 25.7249 12.8652 25.7304 12.0027C25.7304 11.1403 24.4724 10.0526 22.5278 9.22316C22.0444 9.01991 21.528 8.83314 20.9842 8.66285C20.6766 9.73403 20.2701 10.8492 19.7647 11.9918C20.2756 13.1398 20.6876 14.2605 21.0007 15.3371ZM15.9799 12.0027C15.9799 13.3892 14.8559 14.5132 13.4694 14.5132C12.083 14.5132 10.959 13.3892 10.959 12.0027C10.959 10.6163 12.083 9.49233 13.4694 9.49233C14.8559 9.49233 15.9799 10.6163 15.9799 12.0027Z" fill="#61DAFB"/>
</svg>
