<svg width="20" height="20" viewBox="0 0 20 20" fill="none" xmlns="http://www.w3.org/2000/svg">
<g clip-path="url(#clip0_334_592)">
<path d="M14.6079 11.9838C14.3609 11.8598 13.1429 11.2598 12.9159 11.1778C12.6889 11.0948 12.5239 11.0538 12.3589 11.3018C12.1939 11.5488 11.7189 12.1078 11.5739 12.2728C11.4299 12.4378 11.2849 12.4578 11.0379 12.3338C10.308 12.0432 9.63426 11.6277 9.04695 11.1058C8.50527 10.6051 8.04088 10.0268 7.66895 9.38982C7.52495 9.14182 7.65395 9.00782 7.77795 8.88482C7.88895 8.77382 8.02595 8.59582 8.14895 8.45082C8.25082 8.32564 8.33433 8.18658 8.39695 8.03782C8.4299 7.96946 8.44524 7.89395 8.44157 7.81815C8.4379 7.74236 8.41534 7.66868 8.37595 7.60382C8.31395 7.47982 7.81895 6.26082 7.61295 5.76482C7.41195 5.28282 7.20795 5.34782 7.05495 5.33982C6.91095 5.33282 6.74595 5.33082 6.58095 5.33082C6.45543 5.33432 6.332 5.36376 6.21841 5.41728C6.10483 5.4708 6.00355 5.54725 5.92095 5.64182C5.64097 5.90696 5.41929 6.2275 5.27002 6.58303C5.12074 6.93856 5.04716 7.32129 5.05395 7.70682C5.13424 8.64106 5.48563 9.53151 6.06495 10.2688C7.12687 11.8609 8.58458 13.1494 10.2949 14.0078C10.7563 14.206 11.2276 14.3803 11.7069 14.5298C12.2123 14.6832 12.7465 14.7165 13.2669 14.6268C13.6116 14.557 13.9381 14.4164 14.2257 14.214C14.5134 14.0116 14.7559 13.7517 14.9379 13.4508C15.1004 13.0808 15.1505 12.6711 15.0819 12.2728C15.0209 12.1688 14.8559 12.1078 14.6079 11.9838ZM17.0999 2.90482C15.3999 1.20517 13.1401 0.181232 10.7413 0.0236273C8.34257 -0.133977 5.96825 0.585496 4.06043 2.0481C2.15261 3.5107 0.841305 5.61677 0.370641 7.97419C-0.100023 10.3316 0.302029 12.7798 1.50195 14.8628L0.0959473 19.9978L5.34995 18.6208C6.8031 19.4121 8.43133 19.8267 10.0859 19.8268H10.0899C12.05 19.8258 13.9659 19.2439 15.5954 18.1545C17.2249 17.0652 18.4949 15.5173 19.2451 13.7064C19.9952 11.8955 20.1918 9.90295 19.81 7.98041C19.4282 6.05786 18.4851 4.29161 17.0999 2.90481V2.90482ZM14.4669 16.8938C13.1551 17.7161 11.6382 18.1524 10.0899 18.1528H10.0859C8.61085 18.1527 7.16293 17.7559 5.89395 17.0038L5.59295 16.8258L2.47495 17.6438L3.30695 14.6038L3.11195 14.2918C2.24649 12.9117 1.80973 11.3059 1.85688 9.67747C1.90404 8.04909 2.433 6.47126 3.37687 5.14349C4.32074 3.81573 5.63714 2.79767 7.1596 2.21804C8.68205 1.63841 10.3422 1.52325 11.9301 1.88712C13.518 2.25099 14.9624 3.07754 16.0805 4.26227C17.1987 5.447 17.9404 6.93668 18.212 8.54296C18.4835 10.1492 18.2726 11.8 17.606 13.2864C16.9394 14.7728 15.847 16.0282 14.4669 16.8938Z" fill="white"/>
</g>
<defs>
<clipPath id="clip0_334_592">
<rect width="19.904" height="19.9956" fill="white" transform="translate(0.0959473 0.00218964)"/>
</clipPath>
</defs>
</svg>
