<svg width="11" height="8" viewBox="0 0 11 8" fill="none" xmlns="http://www.w3.org/2000/svg">
<path d="M10.5 1.17C10.3126 0.983749 10.0592 0.879208 9.79501 0.879208C9.53082 0.879208 9.27737 0.983749 9.09001 1.17L5.50001 4.71L1.96001 1.17C1.77265 0.983749 1.5192 0.879208 1.25501 0.879208C0.990824 0.879208 0.737372 0.983749 0.55001 1.17C0.456281 1.26296 0.381887 1.37356 0.331118 1.49542C0.280349 1.61728 0.254211 1.74799 0.254211 1.88C0.254211 2.01201 0.280349 2.14272 0.331118 2.26458C0.381887 2.38644 0.456281 2.49704 0.55001 2.59L4.79001 6.83C4.88297 6.92373 4.99357 6.99812 5.11543 7.04889C5.23729 7.09966 5.368 7.1258 5.50001 7.1258C5.63202 7.1258 5.76273 7.09966 5.88459 7.04889C6.00645 6.99812 6.11705 6.92373 6.21001 6.83L10.5 2.59C10.5937 2.49704 10.6681 2.38644 10.7189 2.26458C10.7697 2.14272 10.7958 2.01201 10.7958 1.88C10.7958 1.74799 10.7697 1.61728 10.7189 1.49542C10.6681 1.37356 10.5937 1.26296 10.5 1.17Z" fill="white"/>
</svg>
