<svg width="226" height="46" viewBox="0 0 226 46" fill="none" xmlns="http://www.w3.org/2000/svg">
<g id="Group">
<path id="Vector" fill-rule="evenodd" clip-rule="evenodd" d="M43.9286 0.5H11.8457C0.247491 3.26857 0 12.9114 0 12.9114V45.5H12.3407V15.83C12.3407 13.3079 14.8071 12.8621 14.8071 12.8621H43.9286V0.5ZM19.5451 17.6508C19.5451 17.6508 17.1429 17.4135 17.1429 19.5387V28.9786H32.993V31.8116C32.993 31.8116 33.0403 33.2271 31.5521 33.2271H17.1429V45.5H34.4339C34.4339 45.5 44.9053 43.8963 45 33.2271V17.6508H19.5451Z" fill="#4385F4"/>
<path id="Vector_2" d="M82.4392 33.9407C81.8688 34.3385 81.4472 34.6303 81.1497 34.816C80.0833 35.5057 79.0666 36.0362 78.1243 36.4606C76.7604 37.0441 75.5453 37.3359 74.4542 37.3359C70.7096 37.3359 67.6099 36.1423 65.1052 33.7284C62.6006 31.3146 61.3607 28.2907 61.3607 24.6302C61.3607 21.1023 62.4766 18.0518 64.7333 15.4523C66.9899 12.8528 69.7177 11.5796 72.9415 11.5796C74.2806 11.5796 75.7189 11.8183 77.2068 12.3223C79.141 12.9589 80.7033 13.9139 81.9432 15.1606L79.7858 17.654C78.8682 16.7256 77.6779 16.0359 76.2892 15.6115C75.2477 15.2932 74.107 15.134 72.8423 15.134C70.5856 15.134 68.6762 16.0889 67.1635 17.9723C65.6508 19.8821 64.8821 22.1368 64.8821 24.7893C64.8821 27.4154 65.75 29.5639 67.4859 31.2881C69.2217 33.0123 71.4288 33.8876 74.107 33.8876C75.2229 33.8876 76.3636 33.5162 77.5291 32.8001C78.4963 32.0308 78.9922 31.6595 79.017 31.6329V26.1952H71.776L72.8175 22.7999H82.4392V33.9407ZM104.311 27.3093C104.311 29.9353 103.418 32.2165 101.633 34.1263C99.8475 36.0362 97.6405 37.0176 95.0119 37.0176C92.5816 37.0176 90.449 36.0627 88.6139 34.1794C86.7789 32.2961 85.8861 30.0149 85.8861 27.3358C85.8861 24.6832 86.7541 22.402 88.4899 20.4391C90.2258 18.4762 92.3584 17.5213 94.8631 17.5213C97.6405 17.5213 99.8971 18.4497 101.658 20.333C103.418 22.1633 104.311 24.4975 104.311 27.3093ZM100.914 27.3623C100.914 25.5851 100.343 24.0731 99.2027 22.853C98.062 21.6063 96.6485 20.9962 94.9623 20.9962C93.3752 20.9962 92.0361 21.6328 90.9202 22.906C89.8042 24.1792 89.2587 25.6381 89.2587 27.2827C89.2587 29.0069 89.829 30.4658 90.945 31.686C92.0609 32.9062 93.4496 33.5428 95.1358 33.5428C96.6981 33.5428 98.0372 32.9327 99.1779 31.7125C100.343 30.4923 100.914 29.0334 100.914 27.3623ZM125.886 27.3093C125.886 29.9353 124.993 32.2165 123.207 34.1263C121.422 36.0362 119.215 37.0176 116.586 37.0176C114.156 37.0176 112.023 36.0627 110.188 34.1794C108.353 32.2961 107.461 30.0149 107.461 27.3358C107.461 24.6832 108.328 22.402 110.064 20.4391C111.8 18.4762 113.933 17.5213 116.437 17.5213C119.215 17.5213 121.472 18.4497 123.232 20.333C124.993 22.1633 125.886 24.4975 125.886 27.3093ZM122.488 27.3623C122.488 25.5851 121.918 24.0731 120.777 22.853C119.636 21.6063 118.223 20.9962 116.537 20.9962C114.95 20.9962 113.61 21.6328 112.495 22.906C111.379 24.1792 110.833 25.6381 110.833 27.2827C110.833 29.0069 111.403 30.4658 112.519 31.686C113.635 32.9062 115.024 33.5428 116.71 33.5428C118.273 33.5428 119.612 32.9327 120.752 31.7125C121.918 30.4923 122.488 29.0334 122.488 27.3623ZM145.848 36.4871L142.724 36.9911V33.8345L142.054 34.6303C141.459 35.2139 140.789 35.6913 140.07 36.0627C139.029 36.5667 137.888 36.8319 136.673 36.8319C134.243 36.8319 132.16 35.9035 130.473 34.0202C128.787 32.1369 127.944 29.9088 127.944 27.3093C127.944 24.6302 128.787 22.3225 130.448 20.4126C132.11 18.5028 134.143 17.5479 136.574 17.5479C137.962 17.5479 139.177 17.7866 140.194 18.264C140.913 18.6089 141.533 19.0598 142.054 19.6168C142.228 19.8556 142.401 20.1208 142.575 20.3596V12.0836L145.898 11.5796L145.848 36.4871ZM142.922 27.548C142.922 25.6912 142.327 24.1262 141.112 22.853C139.897 21.5532 138.533 20.9166 136.97 20.9166C135.235 20.9166 133.846 21.5267 132.779 22.7469C131.788 23.914 131.267 25.3464 131.267 27.0175C131.267 28.9008 131.788 30.4658 132.829 31.686C133.871 32.9062 135.185 33.5162 136.797 33.5162C138.384 33.5162 139.773 32.9592 141.012 31.8186C142.277 30.6515 142.922 29.2191 142.922 27.548ZM163.38 15.5319H154.081V22.1368H161.297V25.532H154.081V36.4606L150.461 37.0176V12.1101H162.661L163.38 15.5319ZM170.845 13.5955L168.613 16.5399L166.48 13.5955L168.737 10.6777L170.845 13.5955ZM170.175 36.4871L166.852 36.9646V18.5293L170.175 17.9988V36.4871ZM185.178 17.8131L183.616 21.5797C183.442 21.5532 183.219 21.5267 182.996 21.5267C182.673 21.5267 182.351 21.5532 182.029 21.6063C181.706 21.6593 181.359 21.7919 180.987 21.9776C180.293 22.2959 179.698 22.9856 179.177 24.0201C178.607 25.1872 178.309 26.4604 178.309 27.8132V36.4606L174.986 37.0176V18.5293L178.061 17.9457V21.7919C178.458 21.1288 178.879 20.4657 179.276 19.776C179.846 19.0863 180.516 18.5824 181.26 18.2906C181.657 18.1314 182.376 17.9988 183.467 17.8927C184.509 17.8131 185.104 17.7601 185.178 17.8131ZM209.927 36.4871L206.604 36.9911V24.3384C206.604 23.1713 206.356 22.3225 205.86 21.7919C205.364 21.2614 204.62 20.9962 203.653 20.9962C202.487 20.9962 201.594 21.5002 200.999 22.5081C200.603 23.1978 200.379 23.9405 200.379 24.6832V36.4606L197.056 37.0972V24.418C197.056 23.3039 196.808 22.4551 196.337 21.8715C195.841 21.288 195.197 20.9962 194.353 20.9962H194.031C192.865 20.9962 192.022 21.5002 191.502 22.5347C191.105 23.3039 190.906 24.2853 190.906 25.479V36.4606L187.459 37.0972V18.5293L190.559 17.9723V20.333C190.906 19.776 191.254 19.3251 191.576 19.0068C192.469 18.1314 193.51 17.707 194.676 17.707C195.99 17.707 196.957 17.9192 197.627 18.3701C198.197 18.7415 198.743 19.4842 199.288 20.5452C200.429 18.6619 202.041 17.707 204.173 17.707C206.207 17.707 207.72 18.3701 208.712 19.7229C209.53 20.837 209.927 22.4816 209.927 24.6302V36.4871ZM225.103 30.8902C225.103 32.5878 224.533 33.9937 223.392 35.0812C222.251 36.1953 220.813 36.7258 219.077 36.7258C217.763 36.7258 216.597 36.4075 215.531 35.7709C214.465 35.1343 213.671 34.4181 213.15 33.5693L215.481 31.3942C215.655 31.6595 215.804 31.8717 215.953 32.0308C216.821 32.9592 217.862 33.4367 219.077 33.4367C219.92 33.4367 220.59 33.1979 221.061 32.747C221.557 32.2961 221.78 31.6595 221.78 30.8372C221.78 29.9088 221.21 29.2722 220.069 28.9273C217.812 28.2111 216.597 27.8132 216.424 27.7337C215.382 27.1766 214.638 26.5931 214.167 25.9299C213.646 25.1607 213.374 24.1527 213.374 22.853C213.374 21.2614 213.944 19.9352 215.06 18.8741C216.176 17.8131 217.515 17.3091 219.052 17.3091C220.218 17.3091 221.309 17.5744 222.301 18.1314C223.293 18.6885 224.012 19.272 224.434 19.9617L222.45 22.2164C222.078 21.845 221.755 21.5532 221.483 21.3675C220.689 20.784 219.92 20.4922 219.201 20.4922C218.507 20.4922 217.936 20.6513 217.49 20.9697C216.969 21.3675 216.697 21.9511 216.697 22.7203C216.697 23.4631 216.945 24.0201 217.465 24.3649C217.912 24.6567 218.854 24.975 220.342 25.3198C221.83 25.6912 222.971 26.3278 223.789 27.2297C224.706 28.1846 225.103 29.3783 225.103 30.8902Z" fill="#4385F4"/>
</g>
</svg>
