<svg width="152" height="46" viewBox="0 0 152 46" fill="none" xmlns="http://www.w3.org/2000/svg">
<path d="M98.4335 10.85C91.6834 10.85 86.2834 16.25 86.2834 23C86.2834 29.75 91.6834 35.15 98.4335 35.15C105.183 35.15 110.583 29.75 110.583 23C110.583 16.25 105.183 10.85 98.4335 10.85ZM98.4335 30.2C94.5334 30.2 91.2334 27.05 91.2334 23C91.2334 18.95 94.3834 15.8 98.4335 15.8C102.333 15.8 105.633 18.95 105.633 22.85C105.633 26.9 102.483 30.2 98.4335 30.2ZM125.433 16.7C121.983 16.7 119.133 19.55 119.133 23V34.55H113.883V11.6H119.133V15.2C120.633 12.95 123.183 11.6 125.883 11.6H127.533V16.7H125.433ZM72.6334 11.6L76.5334 27.5L80.8834 11.6H85.9834L79.3834 34.55H74.1334L70.0834 18.5L66.0334 34.55H60.7834L54.1834 11.6H59.2834L63.6334 27.5L67.6834 11.6H72.6334ZM142.833 22.1C146.733 20 148.983 15.95 148.983 11.45H143.883C143.883 15.35 140.733 18.35 136.983 18.35H136.233V0.5H130.983V34.55H136.233V23.75H136.833C137.433 23.75 138.033 24.05 138.333 24.5L145.683 34.55H151.983L142.833 22.1Z" fill="white"/>
<path d="M41.7334 10.8499C36.0334 10.8499 31.6834 14.5999 29.8834 20.5999C27.1834 16.5499 25.2334 12.0499 23.8834 7.3999H17.7334V23.2999C17.7334 26.4499 15.1834 28.9999 12.0334 28.9999C8.88338 28.9999 6.33338 26.4499 6.33338 23.2999V7.5499H0.333374V23.4499C0.333374 29.8999 5.58338 35.2999 12.1834 35.2999C18.7834 35.2999 24.0334 30.0499 24.0334 23.4499V20.7499C25.2334 23.2999 26.7334 25.6999 28.3834 27.9499L24.6334 45.4999H30.9334L33.6334 32.7499C36.0334 34.3999 38.8834 35.2999 41.8834 35.2999C48.6334 35.2999 54.0334 29.8999 54.0334 23.1499C53.8834 16.3999 48.4834 10.8499 41.7334 10.8499ZM41.7334 29.1499C39.1834 28.9999 36.7834 28.0999 34.8334 26.4499L35.2834 24.0499V23.8999C35.7334 21.3499 37.2334 16.9999 41.5834 16.9999C44.8834 16.8499 47.5834 19.5499 47.7334 22.8499C47.8834 26.1499 45.1834 28.8499 41.8834 28.9999L41.7334 29.1499Z" fill="#6FDA44"/>
</svg>
