<svg width="159" height="46" viewBox="0 0 159 46" fill="none" xmlns="http://www.w3.org/2000/svg">
<path d="M48.3496 0.5H41.1497V45.4998H48.3496V0.5Z" fill="white"/>
<path d="M73.5495 31.1448C73.5495 38.0316 67.7589 38.5806 66.0363 38.5806C61.7325 38.5806 60.9495 34.5522 60.9495 32.1222V14.8999H53.7496V32.0862C53.7496 36.3522 55.0888 39.873 57.436 42.2202C59.5095 44.2956 62.6163 45.4296 65.9823 45.4296C68.3691 45.4296 71.7495 44.6862 73.5495 43.0428V45.4998H80.7495V14.8999H73.5495V31.1448Z" fill="white"/>
<path d="M95.1494 4.1001H87.9494V14.9001H82.5494V22.1H87.9494V45.4999H95.1494V22.1H100.549V14.9001H95.1494V4.1001Z" fill="white"/>
<path d="M123.224 36.3509C121.656 37.7603 119.586 38.5415 117.315 38.5415C112.307 38.5415 108.63 34.8641 108.63 29.8151C108.63 24.7661 112.19 21.2435 117.315 21.2435C119.547 21.2435 121.656 21.9869 123.263 23.3963L124.356 24.3359L129.211 19.4831L127.996 18.3869C125.139 15.8075 121.347 14.3604 117.313 14.3604C108.313 14.3604 101.777 20.8547 101.777 29.7773C101.777 38.6621 108.469 45.3886 117.313 45.3886C121.422 45.3886 125.254 43.9414 128.075 41.3206L129.248 40.2244L124.318 35.3753L123.224 36.3509Z" fill="white"/>
<path d="M154.909 17.5675C152.836 15.4939 150.406 14.3599 147.04 14.3599C144.653 14.3599 141.949 15.1033 140.149 16.7449V0.5H132.949V45.4998H140.149V28.6429C140.149 21.7561 145.042 21.2089 146.764 21.2089C151.068 21.2089 150.949 25.2391 150.949 27.6655V45.4998H158.149V27.7033C158.149 23.4373 157.258 19.9165 154.909 17.5675Z" fill="white"/>
<path d="M117.077 24.689C119.953 24.689 122.284 27.0164 122.284 29.8945C122.284 32.7691 119.953 35.1001 117.077 35.1001C114.202 35.1001 111.873 32.7691 111.873 29.8945C111.875 27.0182 114.204 24.689 117.077 24.689Z" fill="#FF3D2E"/>
<path d="M31.0697 34.1989C28.3319 37.0159 24.6131 38.5423 20.6999 38.5423C12.6791 38.5423 6.84717 32.2423 6.84717 23.5951C6.84717 14.9084 12.6791 8.6084 20.6999 8.6084C24.5753 8.6084 28.2527 10.133 31.0319 12.9122L32.1263 14.0084L36.9394 9.1952L35.8829 8.099C31.8923 3.98962 26.4923 1.76123 20.6999 1.76123C8.88296 1.76123 0 11.1518 0 23.6329C0 36.0763 8.92256 45.4291 20.6999 45.4291C26.5319 45.4291 31.9319 43.1611 35.9225 39.0517L36.979 37.9555L32.2055 33.0649L31.0697 34.1989Z" fill="white"/>
</svg>
