<svg width="159" height="46" viewBox="0 0 159 46" fill="none" xmlns="http://www.w3.org/2000/svg">
<g id="Group">
<path id="Vector" d="M48.3496 0.5H41.1497V45.4998H48.3496V0.5Z" fill="white"/>
<path id="Vector_2" d="M73.5495 31.1453C73.5495 38.0321 67.7589 38.5811 66.0363 38.5811C61.7325 38.5811 60.9495 34.5527 60.9495 32.1227V14.9004H53.7496V32.0867C53.7496 36.3527 55.0888 39.8735 57.436 42.2207C59.5095 44.2961 62.6163 45.4301 65.9823 45.4301C68.3691 45.4301 71.7495 44.6867 73.5495 43.0433V45.5003H80.7495V14.9004H73.5495V31.1453Z" fill="white"/>
<path id="Vector_3" d="M95.1494 4.09961H87.9494V14.8996H82.5494V22.0995H87.9494V45.4994H95.1494V22.0995H100.549V14.8996H95.1494V4.09961Z" fill="white"/>
<path id="Vector_4" d="M123.224 36.3509C121.656 37.7603 119.586 38.5415 117.315 38.5415C112.307 38.5415 108.63 34.8641 108.63 29.8151C108.63 24.7661 112.19 21.2435 117.315 21.2435C119.547 21.2435 121.656 21.9869 123.263 23.3963L124.356 24.3359L129.211 19.4831L127.996 18.3869C125.139 15.8075 121.347 14.3604 117.313 14.3604C108.313 14.3604 101.777 20.8547 101.777 29.7773C101.777 38.6621 108.469 45.3886 117.313 45.3886C121.422 45.3886 125.254 43.9414 128.075 41.3206L129.248 40.2244L124.318 35.3753L123.224 36.3509Z" fill="white"/>
<path id="Vector_5" d="M154.909 17.5675C152.836 15.4939 150.406 14.3599 147.04 14.3599C144.653 14.3599 141.949 15.1033 140.149 16.7449V0.5H132.949V45.4998H140.149V28.6429C140.149 21.7561 145.042 21.2089 146.764 21.2089C151.068 21.2089 150.949 25.2391 150.949 27.6655V45.4998H158.149V27.7033C158.149 23.4373 157.258 19.9165 154.909 17.5675Z" fill="white"/>
<path id="Vector_6" d="M117.077 24.6885C119.953 24.6885 122.284 27.0159 122.284 29.8941C122.284 32.7686 119.953 35.0996 117.077 35.0996C114.202 35.0996 111.873 32.7686 111.873 29.8941C111.875 27.0177 114.204 24.6885 117.077 24.6885Z" fill="#FF3D2E"/>
<path id="Vector_7" d="M31.0697 34.1994C28.3319 37.0164 24.6131 38.5428 20.6999 38.5428C12.6791 38.5428 6.84717 32.2428 6.84717 23.5956C6.84717 14.9089 12.6791 8.60889 20.6999 8.60889C24.5753 8.60889 28.2527 10.1335 31.0319 12.9127L32.1263 14.0089L36.9394 9.19569L35.8829 8.09949C31.8923 3.99011 26.4923 1.76172 20.6999 1.76172C8.88296 1.76172 0 11.1523 0 23.6334C0 36.0768 8.92256 45.4295 20.6999 45.4295C26.5319 45.4295 31.9319 43.1615 35.9225 39.0522L36.979 37.956L32.2055 33.0654L31.0697 34.1994Z" fill="white"/>
</g>
</svg>
