<svg width="64" height="64" viewBox="0 0 64 64" fill="none" xmlns="http://www.w3.org/2000/svg">
<path d="M45.3334 18.6666C44.1004 15.4553 42.0844 12.6031 39.4686 10.3692C36.8527 8.13537 33.7201 6.59069 30.3554 5.87562C26.9907 5.16056 23.5006 5.29778 20.2024 6.27481C16.9042 7.25184 13.9025 9.03771 11.4701 11.4701C9.03777 13.9024 7.25191 16.9041 6.27487 20.2023C5.29784 23.5005 5.16062 26.9906 5.87569 30.3553C6.59075 33.72 8.13543 36.8527 10.3693 39.4685C12.6032 42.0843 15.4554 44.1003 18.6667 45.3333C19.8997 48.5446 21.9157 51.3968 24.5315 53.6307C27.1473 55.8646 30.28 57.4093 33.6447 58.1243C37.0094 58.8394 40.4995 58.7022 43.7977 57.7251C47.0959 56.7481 50.0976 54.9622 52.53 52.5299C54.9623 50.0975 56.7482 47.0958 57.7252 43.7976C58.7022 40.4995 58.8395 37.0094 58.1244 33.6446C57.4093 30.2799 55.8647 27.1473 53.6308 24.5315C51.3969 21.9156 48.5447 19.8996 45.3334 18.6666ZM41.0667 22.9333C41.2593 23.9352 41.3575 24.953 41.36 25.9733C41.3545 27.1768 41.2113 28.3757 40.9334 29.5466L34.4267 23.0933C35.5977 22.8153 36.7966 22.6722 38 22.6666C39.0203 22.6692 40.0381 22.7674 41.04 22.96L41.0667 22.9333ZM38.56 34.6666C37.497 36.1796 36.1797 37.4969 34.6667 38.56L25.44 29.3333C26.5031 27.8203 27.8204 26.503 29.3334 25.44L38.56 34.6666ZM17.2267 38.56C15.3792 37.282 13.8351 35.6137 12.7036 33.6731C11.5721 31.7325 10.8808 29.5669 10.6786 27.3296C10.4764 25.0923 10.7683 22.8379 11.5336 20.7259C12.2989 18.6139 13.519 16.6958 15.1074 15.1074C16.6959 13.5189 18.6139 12.2989 20.726 11.5336C22.838 10.7683 25.0924 10.4764 27.3297 10.6786C29.567 10.8807 31.7325 11.572 33.6732 12.7035C35.6138 13.8351 37.2821 15.3792 38.56 17.2266H37.8934C32.4144 17.2619 27.1731 19.4686 23.3188 23.3629C19.4646 27.2571 17.3121 32.5209 17.3334 38C17.3334 38.2133 17.36 38.4533 17.36 38.6666L17.2267 38.56ZM22.8267 40.9333C22.6341 39.9314 22.5359 38.9136 22.5334 37.8933C22.5389 36.6898 22.6821 35.4909 22.96 34.32L29.44 40.8C28.2691 41.0779 27.0702 41.2211 25.8667 41.2266C24.8942 41.2512 23.9214 41.1887 22.96 41.04L22.8267 40.9333ZM38 53.3333C35.5042 53.3286 33.0469 52.7169 30.8402 51.5508C28.6335 50.3847 26.7435 48.6993 25.3334 46.64H26C31.4744 46.6329 36.7229 44.457 40.5964 40.5885C44.4698 36.72 46.6526 31.4743 46.6667 26C46.6667 25.7866 46.6667 25.5466 46.6667 25.3333C49.3756 27.1812 51.4207 29.8489 52.5018 32.9447C53.5829 36.0405 53.6431 39.4013 52.6735 42.5338C51.7039 45.6663 49.7556 48.4055 47.1146 50.3492C44.4737 52.2929 41.2792 53.3388 38 53.3333Z" fill="white"/>
</svg>
